# xmcd
#
# Track frame offsets: 
#        150
#        18213
#        38815
#        55160
#        83604
#        99379
#        111620
#        136979
#        152353
#        177974
#        194458
#        239982
#        260587
#        279033
#        294924
#        306458
#        327005
#        339757
#
# Disc length: 4803 seconds
#
# Revision: 1
# Processed by: cddbd v1.5.2PL0 Copyright (c) Steve Scherf et al.
# Submitted via: ExactAudioCopy v0.95a5
#
DISCID=f412c112
DTITLE=Various Artist - Akella Presents - Modern Electric Blues - vil.4  2CD
DYEAR=2010
DGENRE=Blues
TTITLE0=Livin' This Love - BEAT DADDYS
TTITLE1=To Through With You - STEVE GANNON
TTITLE2=Luberta - MIDNIGHT CREEPERS
TTITLE3=Bad Shape - SAVOY BROWN
TTITLE4=I Know Something Bout the Blues - DEAN HALL
TTITLE5=Head on Collision - CHIP VANDIVER
TTITLE6=More Whan Words - EXTREME
TTITLE7=Womanzer - HYPNOTICS
TTITLE8=Bye Bye Baby - BIRD DOGS
TTITLE9=Swamp Boogie - BILL WHARTON
TTITLE10=Six String Therapy - BRYAN LEE
TTITLE11=Twist of Fate - ROCKY SHELTON
TTITLE12=Crowlin' on My Kness - SCOTT ELLISON
TTITLE13=El Madrid - WILL SMOKEY LOGG
TTITLE14=Ricky Business - Dr. HECTOR
TTITLE15=Blues Patrol - HYPNOTICS
TTITLE16=Where Were You When the Lights Went Out - JIM SUHLER
TTITLE17=Jesus Just Left Chicago - STEVE BASSET
EXTD=
EXTT0=
EXTT1=
EXTT2=
EXTT3=
EXTT4=
EXTT5=
EXTT6=
EXTT7=
EXTT8=
EXTT9=
EXTT10=
EXTT11=
EXTT12=
EXTT13=
EXTT14=
EXTT15=
EXTT16=
EXTT17=
PLAYORDER=
